<mxfile host="app.diagrams.net" modified="2020-06-26T11:32:23.308Z" agent="5.0 (Macintosh; Intel Mac OS X 10_15_5) AppleWebKit/537.36 (KHTML, like Gecko) Chrome/81.0.4044.138 Safari/537.36" etag="zwsoFlmED643G5DhFGZZ" version="13.3.5" type="github">
  <diagram id="XX6yLehGDL8Jt3ZK5i_m" name="Page-1">
    <mxGraphModel dx="925" dy="491" grid="1" gridSize="10" guides="1" tooltips="1" connect="1" arrows="1" fold="1" page="1" pageScale="1" pageWidth="850" pageHeight="1100" math="0" shadow="0">
      <root>
        <mxCell id="0" />
        <mxCell id="1" parent="0" />
        <mxCell id="NcwjzMNsRuXcrqk8h7mC-1" value="" style="html=1;dashed=0;whitespace=wrap;fillColor=#2875E2;strokeColor=#ffffff;points=[[0.005,0.63,0],[0.1,0.2,0],[0.9,0.2,0],[0.5,0,0],[0.995,0.63,0],[0.72,0.99,0],[0.5,1,0],[0.28,0.99,0]];shape=mxgraph.kubernetes.icon;prIcon=pod" vertex="1" parent="1">
          <mxGeometry x="70" y="241" width="50" height="48" as="geometry" />
        </mxCell>
        <mxCell id="NcwjzMNsRuXcrqk8h7mC-18" style="edgeStyle=orthogonalEdgeStyle;rounded=0;orthogonalLoop=1;jettySize=auto;html=1;entryX=0.5;entryY=0;entryDx=0;entryDy=0;entryPerimeter=0;" edge="1" parent="1" target="NcwjzMNsRuXcrqk8h7mC-12">
          <mxGeometry relative="1" as="geometry">
            <mxPoint x="585" y="170" as="sourcePoint" />
          </mxGeometry>
        </mxCell>
        <mxCell id="NcwjzMNsRuXcrqk8h7mC-19" style="edgeStyle=orthogonalEdgeStyle;rounded=0;orthogonalLoop=1;jettySize=auto;html=1;entryX=0.5;entryY=0;entryDx=0;entryDy=0;entryPerimeter=0;" edge="1" parent="1" target="NcwjzMNsRuXcrqk8h7mC-13">
          <mxGeometry relative="1" as="geometry">
            <mxPoint x="585" y="170" as="sourcePoint" />
          </mxGeometry>
        </mxCell>
        <mxCell id="NcwjzMNsRuXcrqk8h7mC-20" style="edgeStyle=orthogonalEdgeStyle;rounded=0;orthogonalLoop=1;jettySize=auto;html=1;exitX=0.5;exitY=1;exitDx=0;exitDy=0;exitPerimeter=0;entryX=0.5;entryY=0;entryDx=0;entryDy=0;entryPerimeter=0;" edge="1" parent="1" source="NcwjzMNsRuXcrqk8h7mC-2" target="NcwjzMNsRuXcrqk8h7mC-14">
          <mxGeometry relative="1" as="geometry">
            <Array as="points">
              <mxPoint x="585" y="170" />
              <mxPoint x="555" y="170" />
            </Array>
          </mxGeometry>
        </mxCell>
        <mxCell id="NcwjzMNsRuXcrqk8h7mC-21" style="edgeStyle=orthogonalEdgeStyle;rounded=0;orthogonalLoop=1;jettySize=auto;html=1;entryX=0.5;entryY=0;entryDx=0;entryDy=0;entryPerimeter=0;" edge="1" parent="1" source="NcwjzMNsRuXcrqk8h7mC-2" target="NcwjzMNsRuXcrqk8h7mC-15">
          <mxGeometry relative="1" as="geometry">
            <Array as="points">
              <mxPoint x="585" y="170" />
              <mxPoint x="625" y="170" />
            </Array>
          </mxGeometry>
        </mxCell>
        <mxCell id="NcwjzMNsRuXcrqk8h7mC-22" style="edgeStyle=orthogonalEdgeStyle;rounded=0;orthogonalLoop=1;jettySize=auto;html=1;entryX=0.5;entryY=0;entryDx=0;entryDy=0;entryPerimeter=0;" edge="1" parent="1" target="NcwjzMNsRuXcrqk8h7mC-16">
          <mxGeometry relative="1" as="geometry">
            <mxPoint x="585" y="170" as="sourcePoint" />
          </mxGeometry>
        </mxCell>
        <mxCell id="NcwjzMNsRuXcrqk8h7mC-23" style="edgeStyle=orthogonalEdgeStyle;rounded=0;orthogonalLoop=1;jettySize=auto;html=1;entryX=0.44;entryY=0.158;entryDx=0;entryDy=0;entryPerimeter=0;exitX=0.5;exitY=1;exitDx=0;exitDy=0;exitPerimeter=0;" edge="1" parent="1" source="NcwjzMNsRuXcrqk8h7mC-2" target="NcwjzMNsRuXcrqk8h7mC-17">
          <mxGeometry relative="1" as="geometry">
            <Array as="points">
              <mxPoint x="585" y="170" />
              <mxPoint x="762" y="170" />
            </Array>
          </mxGeometry>
        </mxCell>
        <mxCell id="NcwjzMNsRuXcrqk8h7mC-2" value="" style="html=1;dashed=0;whitespace=wrap;fillColor=#2875E2;strokeColor=#ffffff;points=[[0.005,0.63,0],[0.1,0.2,0],[0.9,0.2,0],[0.5,0,0],[0.995,0.63,0],[0.72,0.99,0],[0.5,1,0],[0.28,0.99,0]];shape=mxgraph.kubernetes.icon;prIcon=ds" vertex="1" parent="1">
          <mxGeometry x="560" y="40" width="50" height="48" as="geometry" />
        </mxCell>
        <mxCell id="NcwjzMNsRuXcrqk8h7mC-11" value="" style="edgeStyle=orthogonalEdgeStyle;rounded=0;orthogonalLoop=1;jettySize=auto;html=1;" edge="1" parent="1" source="NcwjzMNsRuXcrqk8h7mC-3" target="NcwjzMNsRuXcrqk8h7mC-4">
          <mxGeometry relative="1" as="geometry" />
        </mxCell>
        <mxCell id="NcwjzMNsRuXcrqk8h7mC-3" value="" style="html=1;dashed=0;whitespace=wrap;fillColor=#2875E2;strokeColor=#ffffff;points=[[0.005,0.63,0],[0.1,0.2,0],[0.9,0.2,0],[0.5,0,0],[0.995,0.63,0],[0.72,0.99,0],[0.5,1,0],[0.28,0.99,0]];shape=mxgraph.kubernetes.icon;prIcon=svc" vertex="1" parent="1">
          <mxGeometry x="130" y="30" width="50" height="48" as="geometry" />
        </mxCell>
        <mxCell id="NcwjzMNsRuXcrqk8h7mC-7" style="edgeStyle=orthogonalEdgeStyle;rounded=0;orthogonalLoop=1;jettySize=auto;html=1;entryX=0.5;entryY=0;entryDx=0;entryDy=0;entryPerimeter=0;exitX=0.5;exitY=1;exitDx=0;exitDy=0;exitPerimeter=0;" edge="1" parent="1" source="NcwjzMNsRuXcrqk8h7mC-4" target="NcwjzMNsRuXcrqk8h7mC-1">
          <mxGeometry relative="1" as="geometry" />
        </mxCell>
        <mxCell id="NcwjzMNsRuXcrqk8h7mC-8" style="edgeStyle=orthogonalEdgeStyle;rounded=0;orthogonalLoop=1;jettySize=auto;html=1;entryX=0.5;entryY=0;entryDx=0;entryDy=0;entryPerimeter=0;" edge="1" parent="1" source="NcwjzMNsRuXcrqk8h7mC-4" target="NcwjzMNsRuXcrqk8h7mC-5">
          <mxGeometry relative="1" as="geometry" />
        </mxCell>
        <mxCell id="NcwjzMNsRuXcrqk8h7mC-9" style="edgeStyle=orthogonalEdgeStyle;rounded=0;orthogonalLoop=1;jettySize=auto;html=1;entryX=0.5;entryY=0;entryDx=0;entryDy=0;entryPerimeter=0;exitX=0.5;exitY=1;exitDx=0;exitDy=0;exitPerimeter=0;" edge="1" parent="1" source="NcwjzMNsRuXcrqk8h7mC-4" target="NcwjzMNsRuXcrqk8h7mC-6">
          <mxGeometry relative="1" as="geometry" />
        </mxCell>
        <mxCell id="NcwjzMNsRuXcrqk8h7mC-4" value="" style="html=1;dashed=0;whitespace=wrap;fillColor=#2875E2;strokeColor=#ffffff;points=[[0.005,0.63,0],[0.1,0.2,0],[0.9,0.2,0],[0.5,0,0],[0.995,0.63,0],[0.72,0.99,0],[0.5,1,0],[0.28,0.99,0]];shape=mxgraph.kubernetes.icon;prIcon=deploy" vertex="1" parent="1">
          <mxGeometry x="130" y="130" width="50" height="48" as="geometry" />
        </mxCell>
        <mxCell id="NcwjzMNsRuXcrqk8h7mC-5" value="" style="html=1;dashed=0;whitespace=wrap;fillColor=#2875E2;strokeColor=#ffffff;points=[[0.005,0.63,0],[0.1,0.2,0],[0.9,0.2,0],[0.5,0,0],[0.995,0.63,0],[0.72,0.99,0],[0.5,1,0],[0.28,0.99,0]];shape=mxgraph.kubernetes.icon;prIcon=pod" vertex="1" parent="1">
          <mxGeometry x="130" y="241" width="50" height="48" as="geometry" />
        </mxCell>
        <mxCell id="NcwjzMNsRuXcrqk8h7mC-6" value="" style="html=1;dashed=0;whitespace=wrap;fillColor=#2875E2;strokeColor=#ffffff;points=[[0.005,0.63,0],[0.1,0.2,0],[0.9,0.2,0],[0.5,0,0],[0.995,0.63,0],[0.72,0.99,0],[0.5,1,0],[0.28,0.99,0]];shape=mxgraph.kubernetes.icon;prIcon=pod" vertex="1" parent="1">
          <mxGeometry x="190" y="241" width="50" height="48" as="geometry" />
        </mxCell>
        <mxCell id="NcwjzMNsRuXcrqk8h7mC-12" value="" style="html=1;dashed=0;whitespace=wrap;fillColor=#2875E2;strokeColor=#ffffff;points=[[0.005,0.63,0],[0.1,0.2,0],[0.9,0.2,0],[0.5,0,0],[0.995,0.63,0],[0.72,0.99,0],[0.5,1,0],[0.28,0.99,0]];shape=mxgraph.kubernetes.icon;prIcon=pod" vertex="1" parent="1">
          <mxGeometry x="390" y="241" width="50" height="48" as="geometry" />
        </mxCell>
        <mxCell id="NcwjzMNsRuXcrqk8h7mC-13" value="" style="html=1;dashed=0;whitespace=wrap;fillColor=#2875E2;strokeColor=#ffffff;points=[[0.005,0.63,0],[0.1,0.2,0],[0.9,0.2,0],[0.5,0,0],[0.995,0.63,0],[0.72,0.99,0],[0.5,1,0],[0.28,0.99,0]];shape=mxgraph.kubernetes.icon;prIcon=pod" vertex="1" parent="1">
          <mxGeometry x="460" y="241" width="50" height="48" as="geometry" />
        </mxCell>
        <mxCell id="NcwjzMNsRuXcrqk8h7mC-14" value="" style="html=1;dashed=0;whitespace=wrap;fillColor=#2875E2;strokeColor=#ffffff;points=[[0.005,0.63,0],[0.1,0.2,0],[0.9,0.2,0],[0.5,0,0],[0.995,0.63,0],[0.72,0.99,0],[0.5,1,0],[0.28,0.99,0]];shape=mxgraph.kubernetes.icon;prIcon=pod" vertex="1" parent="1">
          <mxGeometry x="530" y="241" width="50" height="48" as="geometry" />
        </mxCell>
        <mxCell id="NcwjzMNsRuXcrqk8h7mC-15" value="" style="html=1;dashed=0;whitespace=wrap;fillColor=#2875E2;strokeColor=#ffffff;points=[[0.005,0.63,0],[0.1,0.2,0],[0.9,0.2,0],[0.5,0,0],[0.995,0.63,0],[0.72,0.99,0],[0.5,1,0],[0.28,0.99,0]];shape=mxgraph.kubernetes.icon;prIcon=pod" vertex="1" parent="1">
          <mxGeometry x="600" y="241" width="50" height="48" as="geometry" />
        </mxCell>
        <mxCell id="NcwjzMNsRuXcrqk8h7mC-16" value="" style="html=1;dashed=0;whitespace=wrap;fillColor=#2875E2;strokeColor=#ffffff;points=[[0.005,0.63,0],[0.1,0.2,0],[0.9,0.2,0],[0.5,0,0],[0.995,0.63,0],[0.72,0.99,0],[0.5,1,0],[0.28,0.99,0]];shape=mxgraph.kubernetes.icon;prIcon=pod" vertex="1" parent="1">
          <mxGeometry x="670" y="241" width="50" height="48" as="geometry" />
        </mxCell>
        <mxCell id="NcwjzMNsRuXcrqk8h7mC-17" value="" style="html=1;dashed=0;whitespace=wrap;fillColor=#2875E2;strokeColor=#ffffff;points=[[0.005,0.63,0],[0.1,0.2,0],[0.9,0.2,0],[0.5,0,0],[0.995,0.63,0],[0.72,0.99,0],[0.5,1,0],[0.28,0.99,0]];shape=mxgraph.kubernetes.icon;prIcon=pod" vertex="1" parent="1">
          <mxGeometry x="740" y="241" width="50" height="48" as="geometry" />
        </mxCell>
        <mxCell id="NcwjzMNsRuXcrqk8h7mC-24" value="" style="html=1;dashed=0;whitespace=wrap;fillColor=#2875E2;strokeColor=#ffffff;points=[[0.005,0.63,0],[0.1,0.2,0],[0.9,0.2,0],[0.5,0,0],[0.995,0.63,0],[0.72,0.99,0],[0.5,1,0],[0.28,0.99,0]];shape=mxgraph.kubernetes.icon;prIcon=pod" vertex="1" parent="1">
          <mxGeometry x="390" y="340" width="50" height="48" as="geometry" />
        </mxCell>
        <mxCell id="NcwjzMNsRuXcrqk8h7mC-28" value="" style="aspect=fixed;html=1;points=[];align=center;image;fontSize=12;image=img/lib/mscae/Container_Instances.svg;" vertex="1" parent="1">
          <mxGeometry x="510" y="350" width="50" height="50" as="geometry" />
        </mxCell>
      </root>
    </mxGraphModel>
  </diagram>
</mxfile>
